HIERARCHY
ROOT hip
{
	OFFSET 0.000000 0.000000 0.000000 
	CHANNELS 6 Xposition Yposition Zposition Xrotation Zrotation Yrotation
	JOINT abdomen
	{
		OFFSET 0.000000 3.402643 0.000000 
		CHANNELS 3 Xrotation Zrotation Yrotation
		JOINT chest
		{
			OFFSET 0.000000 8.438565 -0.680529 
			CHANNELS 3 Xrotation Zrotation Yrotation
			JOINT neck
			{
				OFFSET 0.000000 10.207942 -0.272212 
				CHANNELS 3 Xrotation Zrotation Yrotation
				JOINT head
				{
					OFFSET 0.000000 3.130431 0.000000 
					CHANNELS 3 Xrotation Zrotation Yrotation
					End Site
					{
						OFFSET 0.000000 3.130435 0.000000 
					}
				}
			}
			JOINT lCollar
			{
				OFFSET 3.470700 6.669187 -0.816635 
				CHANNELS 3 Yrotation Zrotation Xrotation
				JOINT lShldr
				{
					OFFSET 3.198488 0.000000 0.000000 
					CHANNELS 3 Zrotation Yrotation Xrotation
					JOINT lForeArm
					{
						OFFSET 10.139888 0.000000 0.000000 
						CHANNELS 3 Yrotation Zrotation Xrotation
						JOINT lHand
						{
							OFFSET 8.370511 0.000000 0.000000 
							CHANNELS 3 Zrotation Yrotation Xrotation
							End Site
							{
								OFFSET 4.083176 0.000000 0.000000 
							}
						}
					}
				}
			}
			JOINT rCollar
			{
				OFFSET -3.470700 6.669187 -0.816635 
				CHANNELS 3 Yrotation Zrotation Xrotation
				JOINT rShldr
				{
					OFFSET -3.198488 0.000000 0.000000 
					CHANNELS 3 Zrotation Yrotation Xrotation
					JOINT rForeArm
					{
						OFFSET -10.139888 0.000000 0.000000 
						CHANNELS 3 Yrotation Zrotation Xrotation
						JOINT rHand
						{
							OFFSET -8.370511 0.000000 0.000000 
							CHANNELS 3 Zrotation Yrotation Xrotation
							End Site
							{
								OFFSET -4.083176 0.000000 0.000000 
							}
						}
					}
				}
			}
		}
	}
	JOINT lThigh
	{
		OFFSET 5.308129 -1.633274 1.361059 
		CHANNELS 3 Xrotation Zrotation Yrotation
		JOINT lShin
		{
			OFFSET -2.041588 -20.007561 0.000000 
			CHANNELS 3 Xrotation Zrotation Yrotation
			JOINT lFoot
			{
				OFFSET 0.000000 -19.190928 -1.224953 
				CHANNELS 3 Xrotation Yrotation Zrotation
				End Site
				{
					OFFSET 0.000000 -2.449906 4.627600 
				}
			}
		}
	}
	JOINT rThigh
	{
		OFFSET -5.308129 -1.633274 1.361059 
		CHANNELS 3 Xrotation Zrotation Yrotation
		JOINT rShin
		{
			OFFSET 2.041588 -20.007561 0.000000 
			CHANNELS 3 Xrotation Zrotation Yrotation
			JOINT rFoot
			{
				OFFSET 0.000000 -19.190928 -1.224953 
				CHANNELS 3 Xrotation Yrotation Zrotation
				End Site
				{
					OFFSET 0.000000 -2.449906 4.627600 
				}
			}
		}
	}
}
MOTION
Frames: 11
Frame Time: 0.016667
-0.579044 52.300755 -1.219539 -10.000026 -2.724330 -0.821242 27.874779 0.579402 -0.731104 -1.577975 2.185497 -3.702740 -15.742394 -0.286750 0.063138 0.335540 4.985314 -75.637337 -5.468585 -4.927589 -0.252059 -54.564922 13.151211 -11.936255 -16.891340 -5.000000 45.000000 -30.129320 -0.652759 30.479395 1.348303 9.491714 -0.494108 48.169147 1.024603 -0.165750 17.043846 5.000000 45.000000 17.924423 -21.027370 24.177973 16.964121 19.867678 12.331259 5.561278 -5.790056 -0.768087 -10.037277 4.360407 -10.552828 16.018801 -8.034578 -9.767838 2.429434 3.255737 0.209978 -6.115557 -3.668293 7.541210 
-0.592907 52.300755 -1.216095 -10.002944 -2.714604 -0.762714 27.893944 0.572901 -0.714112 -1.607544 2.165936 -3.732017 -15.761927 -0.286750 0.063138 0.353725 4.973199 -75.633095 -5.468411 -4.888578 -0.250050 -54.464348 13.112604 -11.835470 -16.853254 -5.000000 45.000000 -30.109083 -0.705419 30.275810 1.211074 9.433200 -0.491076 48.333084 1.254131 0.051825 16.597662 5.000000 45.000000 17.655096 -20.907650 24.193890 16.964548 19.906050 12.319948 5.516961 -5.831977 -0.794197 -10.009372 4.359863 -10.531514 16.034117 -7.988562 -9.827169 2.448164 3.204797 0.211103 -6.122211 -3.695612 7.561573 
-0.614365 52.299225 -1.211400 -9.998159 -2.724432 -0.655414 27.884069 0.582181 -0.710569 -1.636360 2.146408 -3.741778 -15.791224 -0.286750 0.063138 0.341527 4.951387 -75.626343 -5.478874 -4.858389 -0.259057 -54.331558 13.054642 -11.708109 -16.837194 -5.000000 45.000000 -30.118488 -0.755745 30.068439 1.014750 9.316173 -0.483428 48.566021 1.456304 0.243154 16.212063 5.000000 45.000000 17.412525 -20.863941 24.252748 16.965338 20.033777 12.299109 5.452438 -5.972411 -0.802939 -9.963544 4.277411 -10.516770 16.033606 -7.890663 -9.915866 2.480124 3.130299 0.212802 -6.131729 -3.697424 7.581985 
-0.640888 52.296658 -1.205870 -9.975661 -2.744033 -0.508633 27.874586 0.603680 -0.711451 -1.665596 2.136635 -3.761303 -15.810754 -0.286750 0.063138 0.299218 4.922286 -75.616257 -5.498227 -4.819376 -0.257041 -54.155994 12.986881 -11.548789 -16.839481 -5.000000 45.000000 -30.131943 -0.828452 29.840073 0.778964 9.150384 -0.474857 48.838497 1.643813 0.422535 15.854939 5.000000 45.000000 17.177820 -20.882336 24.381971 16.969872 20.183559 12.282682 5.375626 -6.120060 -0.829356 -9.950018 4.195484 -10.448448 16.038048 -7.742337 -10.024199 2.516562 3.012439 0.205111 -6.187079 -3.729252 7.588743 
-0.666439 52.294369 -1.201172 -9.963558 -2.753854 -0.352095 27.864737 0.619712 -0.725503 -1.694467 2.126879 -3.761304 -15.830287 -0.286750 0.063138 0.265598 4.887659 -75.614639 -5.517582 -4.780362 -0.255025 -53.991592 12.922142 -11.399949 -16.857166 -5.000000 45.000000 -30.154776 -0.887055 29.671230 0.572421 8.974843 -0.465779 49.092434 1.725817 0.512231 15.666994 5.000000 45.000000 17.040129 -20.955534 24.484842 16.939152 20.349253 12.207357 5.298570 -6.277301 -0.826603 -9.903407 4.069594 -10.443496 16.019577 -7.615307 -10.156232 2.567755 2.917174 0.188353 -6.214209 -3.749133 7.611614 
-0.688100 52.293091 -1.199792 -9.942778 -2.734362 -0.176047 27.874468 0.613996 -0.738076 -1.723337 2.117123 -3.761305 -15.849808 -0.277094 0.061677 0.230580 4.836682 -75.598091 -5.537025 -4.760854 -0.253207 -53.850498 12.870184 -11.281462 -16.963751 -5.000000 45.000000 -30.137838 -0.921660 29.671318 0.463327 8.770043 -0.455181 49.250500 1.445904 0.266848 16.151434 5.000000 45.000000 17.321836 -21.226591 24.541170 16.900261 20.457018 12.137195 5.225706 -6.401510 -0.843233 -9.828997 3.982952 -10.398779 16.037041 -7.526387 -10.336536 2.583363 2.824127 0.198888 -6.254268 -3.740173 7.657955 
-0.709760 52.291817 -1.198416 -9.932103 -2.714844 0.009755 27.884203 0.608280 -0.750649 -1.742442 2.107367 -3.761306 -15.869337 -0.277094 0.061677 0.196588 4.791094 -75.572449 -5.566236 -4.741344 -0.252202 -53.710663 12.823530 -11.168884 -17.063547 -5.000000 45.000000 -30.129395 -0.951432 29.671396 0.354197 8.555493 -0.444072 49.419819 1.153583 0.019055 16.640427 5.000000 45.000000 17.591824 -21.512711 24.611979 16.830927 20.563156 12.033126 5.186168 -6.496220 -0.871376 -9.771058 3.910306 -10.390439 16.044437 -7.412628 -10.500624 2.626486 2.729903 0.200942 -6.286768 -3.799461 7.674452 
-0.728558 52.290539 -1.200293 -9.903114 -2.685526 0.224820 27.903946 0.606199 -0.771645 -1.770886 2.087854 -3.761307 -15.898635 -0.277094 0.061677 0.193890 4.751904 -75.519165 -5.595445 -4.721834 -0.251197 -53.622353 12.778653 -11.085109 -17.225143 -5.000000 45.000000 -30.161531 -0.970698 29.803823 0.313172 8.301932 -0.430936 49.520416 0.408747 -0.614859 17.849398 5.000000 45.000000 18.279793 -21.800287 24.041370 16.746948 20.692848 11.900924 5.138219 -6.633767 -0.880149 -9.724411 3.826404 -10.355042 16.046566 -7.331560 -10.703007 2.650246 2.638662 0.163164 -6.328718 -3.772310 7.728393 
-0.746640 52.289257 -1.202980 -9.874433 -2.665934 0.449641 27.923628 0.591794 -0.787511 -1.789990 2.078098 -3.761307 -15.927954 -0.296406 0.064599 0.192160 4.717797 -75.456688 -5.634421 -4.702322 -0.250191 -53.543919 12.731703 -11.003633 -17.397449 -5.000000 45.000000 -30.203049 -0.990269 29.970371 0.301433 8.038619 -0.415920 49.620369 -0.451291 -1.343937 19.276461 5.000000 45.000000 19.084831 -22.057163 23.300343 16.627615 20.798937 11.730581 5.109609 -6.741936 -0.909415 -9.687304 3.779737 -10.323351 16.055765 -7.214396 -10.906900 2.664221 2.554981 0.134110 -6.386013 -3.785510 7.754730 
-0.762748 52.287983 -1.206819 -9.845934 -2.636531 0.684218 27.943516 0.575067 -0.773005 -1.819213 2.068326 -3.780832 -15.927987 -0.325373 0.068981 0.179812 4.680409 -75.403557 -5.662918 -4.703280 -0.240506 -53.477669 12.694345 -10.942117 -17.610363 -5.000000 45.000000 -30.232759 -0.982399 30.174547 0.330013 7.755744 -0.410972 49.737724 -1.562878 -2.270657 21.020056 5.000000 45.000000 20.130899 -22.217533 21.676985 16.509727 20.915834 11.542138 5.080639 -6.861825 -0.899961 -9.640625 3.708424 -10.281240 16.077074 -7.117013 -11.144563 2.688967 2.471437 0.135352 -6.426085 -3.777080 7.778862 
-0.775894 52.286709 -1.212384 -9.827847 -2.607073 0.938307 27.972797 0.563703 -0.746762 -1.848702 2.048767 -3.810111 -15.908580 -0.372191 0.085941 0.128612 4.645189 -75.351311 -5.711829 -4.722786 -0.241510 -53.434902 12.684299 -10.908101 -17.887571 -5.000000 45.000000 -30.250751 -0.942229 30.424749 0.415816 7.463158 -0.395840 49.896290 -3.054549 -3.492297 23.252008 5.000000 45.000000 21.551523 -22.169725 18.727755 16.369280 21.009998 11.376538 5.072984 -6.952548 -0.911065 -9.599889 3.613809 -10.282825 16.077114 -7.039157 -11.376663 2.736948 2.403546 0.128088 -6.470449 -3.819225 7.802920 
